<?xml version="1.0" encoding="utf-8"?>
<!-- Generator: Adobe Illustrator 25.1.0, SVG Export Plug-In . SVG Version: 6.00 Build 0)  -->
<svg version="1.1" id="Layer_1" xmlns="http://www.w3.org/2000/svg" xmlns:xlink="http://www.w3.org/1999/xlink" x="0px" y="0px"
	 viewBox="0 0 2800 879.2" style="enable-background:new 0 0 2800 879.2;" xml:space="preserve">
<style type="text/css">
	.st0{fill:url(#SVGID_1_);}
	.st1{opacity:0.51;}
	.st2{fill:#FFFFFF;}
	.st3{opacity:0.6;fill:url(#SVGID_2_);enable-background:new    ;}
	.st4{opacity:0.6;fill:url(#SVGID_3_);enable-background:new    ;}
	.st5{opacity:0.6;fill:url(#SVGID_4_);enable-background:new    ;}
	.st6{fill:#324E70;}
	.st7{fill:#1A2B44;}
	.st8{opacity:0.5;fill:#1A2B44;enable-background:new    ;}
	.st9{fill:url(#SVGID_5_);}
	.st10{fill:url(#SVGID_6_);}
</style>
<g id="BACKGROUND">
	<g>
		
			<linearGradient id="SVGID_1_" gradientUnits="userSpaceOnUse" x1="1400" y1="1974.6555" x2="1400" y2="2855.7144" gradientTransform="matrix(1 0 0 -1 0 2853.5259)">
			<stop  offset="0" style="stop-color:#FFFFBA"/>
			<stop  offset="0.1253" style="stop-color:#D6E8B8"/>
			<stop  offset="0.3689" style="stop-color:#8BBEB4"/>
			<stop  offset="0.587" style="stop-color:#4F9CB1"/>
			<stop  offset="0.7714" style="stop-color:#2484AF"/>
			<stop  offset="0.915" style="stop-color:#0A75AD"/>
			<stop  offset="1" style="stop-color:#0070AD"/>
		</linearGradient>
		<rect y="-2.2" class="st0" width="2800" height="881.1"/>
		<g class="st1">
			<path class="st2" d="M318.4,96.5c-1.7,0.9-2.3,2.7-1.2,4c1.1,1.4,3.4,1.8,5.1,0.9c1.7-0.9,2.3-2.7,1.2-4l0,0
				C322.4,96.1,320.1,95.7,318.4,96.5L318.4,96.5z"/>
			<path class="st2" d="M1200.8,51.7c-1.7,0.9-2.2,2.7-1.2,4s3.4,1.8,5.1,0.9c1.7-0.9,2.2-2.7,1.2-4
				C1204.8,51.3,1202.5,50.9,1200.8,51.7L1200.8,51.7z"/>
			<path class="st2" d="M824.2,5.5c-1.7,0.9-2.3,2.7-1.2,4c1.1,1.4,3.4,1.8,5.1,0.9c1.7-0.9,2.3-2.7,1.2-4l0,0
				C828.3,5,826,4.6,824.2,5.5z"/>
			<path class="st2" d="M657.9,182.2c-1.7,0.9-2.2,2.7-1.1,4s3.4,1.8,5.1,0.9c1.7-0.9,2.2-2.7,1.1-4l0,0
				C661.9,181.7,659.6,181.3,657.9,182.2z"/>
			<path class="st2" d="M2293,345c-1.7,0.9-2.3,2.7-1.2,4s3.4,1.8,5.1,0.9c1.7-0.9,2.3-2.7,1.2-4l0,0
				C2297,344.5,2294.7,344.1,2293,345L2293,345z"/>
			<path class="st2" d="M1193.6,403.2c-2.8,1.4-3.7,4.3-1.9,6.5c1.7,2.2,5.4,2.9,8.3,1.5c2.8-1.4,3.7-4.3,1.9-6.5l0,0
				C1200.1,402.5,1196.4,401.8,1193.6,403.2z"/>
			<path class="st2" d="M1783.7,108.8c-1.7,0.9-2.3,2.7-1.2,4c1.1,1.4,3.4,1.8,5.1,0.9c1.7-0.9,2.3-2.7,1.2-4l0,0
				C1787.7,108.4,1785.4,108,1783.7,108.8L1783.7,108.8z"/>
			<path class="st2" d="M2461.1,158.2c-1.7,0.9-2.3,2.7-1.2,4s3.4,1.8,5.1,0.9c1.7-0.9,2.3-2.7,1.2-4l0,0
				C2465.1,157.7,2462.8,157.3,2461.1,158.2z"/>
			<path class="st2" d="M2726.4,329.4c-1.1-1.4-3.4-1.8-5.1-0.9c-1.7,0.9-2.3,2.7-1.2,4c1.1,1.4,3.4,1.8,5.1,0.9l0,0
				C2726.9,332.5,2727.5,330.7,2726.4,329.4L2726.4,329.4z"/>
			<path class="st2" d="M2187.2,33.5c-3.4,1.7-4.4,5.2-2.3,7.9c2.1,2.7,6.6,3.5,10,1.8s4.4-5.2,2.3-7.9S2190.7,31.8,2187.2,33.5
				C2187.3,33.5,2187.2,33.5,2187.2,33.5z"/>
			<path class="st2" d="M2674.5,160.1c2.1-1,2.7-3.2,1.4-4.9s-4.1-2.2-6.2-1.1c-2.1,1-2.7,3.2-1.4,4.9l0,0
				C2669.6,160.6,2672.4,161.1,2674.5,160.1z"/>
			<path class="st2" d="M1533,230.8c-2.1,1-2.7,3.2-1.4,4.9s4.1,2.2,6.2,1.1c2.1-1,2.7-3.2,1.4-4.9l0,0
				C1537.9,230.3,1535.1,229.8,1533,230.8z"/>
			<path class="st2" d="M1913.9,223.3c-3.4,1.7-4.4,5.2-2.3,7.9s6.6,3.5,10,1.8s4.4-5.2,2.3-7.9
				C1921.8,222.4,1917.3,221.6,1913.9,223.3C1913.9,223.2,1913.9,223.2,1913.9,223.3z"/>
			<path class="st2" d="M1022.4,271.5c-3.4,1.7-4.4,5.2-2.3,7.9s6.6,3.5,10,1.8s4.4-5.2,2.3-7.9
				C1030.3,270.6,1025.8,269.8,1022.4,271.5L1022.4,271.5z"/>
			<path class="st2" d="M632.1,120.9c-2.1,1-2.7,3.2-1.4,4.9s4.1,2.2,6.2,1.1c2.1-1,2.7-3.2,1.4-4.9
				C637,120.3,634.2,119.8,632.1,120.9L632.1,120.9z"/>
			<path class="st2" d="M98.2,248.7c-3.4,1.7-4.4,5.2-2.3,7.9c2.1,2.7,6.6,3.5,10,1.8s4.4-5.2,2.3-7.9S101.6,247,98.2,248.7
				L98.2,248.7z"/>
			<ellipse class="st2" cx="1289.3" cy="222.4" rx="31.6" ry="24.9"/>
		</g>
		<g>
			
				<linearGradient id="SVGID_2_" gradientUnits="userSpaceOnUse" x1="1400" y1="1974.6555" x2="1400" y2="2474.4121" gradientTransform="matrix(1 0 0 -1 0 2853.5259)">
				<stop  offset="0" style="stop-color:#53BD84"/>
				<stop  offset="0.56" style="stop-color:#005E95"/>
				<stop  offset="1" style="stop-color:#00325F"/>
			</linearGradient>
			<path class="st3" d="M0,438.9c58,4.2,144.5,6.4,245-8.1c129.4-18.6,154.2-46.5,240-51.1c133-7.2,183.6,53.8,344,99.5
				c196.1,55.9,383.8,39.8,472,32.3c260.7-22.4,335.8-103,560-80.7c82,8.2,116.3,23.3,180,37.7c153.4,34.5,391.9,44.6,759-70v480.4
				H0V438.9z"/>
			
				<linearGradient id="SVGID_3_" gradientUnits="userSpaceOnUse" x1="1399.9501" y1="1974.6555" x2="1399.9501" y2="2442.8567" gradientTransform="matrix(1 0 0 -1 0 2853.5259)">
				<stop  offset="0" style="stop-color:#53BD84"/>
				<stop  offset="0.56" style="stop-color:#005E95"/>
				<stop  offset="1" style="stop-color:#00325F"/>
			</linearGradient>
			<path class="st4" d="M2800,478.8c-149-35.1-263.3-37.1-340.9-32.3c-150.5,9.4-220,48.4-352,31.8c-73.9-9.3-103.5-27.9-168-21.5
				c-68.8,6.8-70.2,31.4-145.6,43c-78.2,12-113.7-8.7-204.4-4c-89.8,4.7-117.4,28.3-187.6,44.4c-195.3,44.6-476.6-25.3-666.4-72.6
				c-149.8-37.3-189.5-60.4-282.8-56.5c-92.1,3.9-138.9,30.1-277.2,40.3c-58,4.3-116.9,4.7-175.2,1.3v426.2h2800L2800,478.8
				L2800,478.8z"/>
			
				<linearGradient id="SVGID_4_" gradientUnits="userSpaceOnUse" x1="1400" y1="1974.6555" x2="1400" y2="2367.9292" gradientTransform="matrix(1 0 0 -1 0 2853.5259)">
				<stop  offset="2.248677e-02" style="stop-color:#53BD84"/>
				<stop  offset="2.401663e-02" style="stop-color:#4EB785"/>
				<stop  offset="3.246286e-02" style="stop-color:#369C8A"/>
				<stop  offset="4.205362e-02" style="stop-color:#22858E"/>
				<stop  offset="5.310948e-02" style="stop-color:#137391"/>
				<stop  offset="6.653072e-02" style="stop-color:#086793"/>
				<stop  offset="8.479267e-02" style="stop-color:#026095"/>
				<stop  offset="0.1296" style="stop-color:#005E95"/>
				<stop  offset="0.6557" style="stop-color:#00325F"/>
			</linearGradient>
			<path class="st5" d="M0,485.6c98.7,23.1,247.9,50.7,437,57.6c89.7,3.2,116.5-0.8,228,1.7c240.8,5.5,307.1,28.7,468,36.7
				c249,12.4,250.8-35.2,588-43.6c250.7-6.3,298.4,18.8,560,15.7c175.7-2.1,350.2-15.6,519-40.2v365.4H0V485.6z"/>
		</g>
	</g>
</g>
<g>
	<g>
		<path class="st6" d="M1675.1,807.4h78.5c16,0,28.9,13,28.9,28.9V847c0,16-13,28.9-28.9,28.9h-78.5c-16,0-28.9-13-28.9-28.9v-10.7
			C1646.2,820.4,1659.2,807.4,1675.1,807.4z"/>
		<path class="st7" d="M1753.7,816.5h-78.5c-16,0-29,11.2-29,25.1v9.2c0,13.9,13,25.1,29,25.1h78.5c16,0,29-11.2,29-25.1v-9.2
			C1782.6,827.8,1769.7,816.5,1753.7,816.5z"/>
		<path class="st6" d="M1624.8,823h42.9c8.7,0,15.8,7.1,15.8,15.8v5.8c0,8.7-7.1,15.8-15.8,15.8h-42.9c-8.7,0-15.8-7.1-15.8-15.8
			v-5.8C1608.9,830.1,1616,823,1624.8,823z"/>
		<path class="st6" d="M1761.2,823h42.9c8.7,0,15.8,7.1,15.8,15.8v5.8c0,8.7-7.1,15.8-15.8,15.8h-42.9c-8.7,0-15.8-7.1-15.8-15.8
			v-5.8C1745.4,830.1,1752.5,823,1761.2,823z"/>
		<path class="st7" d="M1667.7,827.9h-42.9c-8.7,0-15.8,6.1-15.8,13.7v5.1c0,7.6,7.1,13.7,15.8,13.7h42.9c8.7,0,15.8-6.1,15.8-13.7
			v-5.1C1683.5,834.1,1676.4,827.9,1667.7,827.9z"/>
		<path class="st7" d="M1804.1,827.9h-42.9c-8.7,0-15.8,6.1-15.8,13.7v5.1c0,7.6,7.1,13.7,15.8,13.7h42.9c8.7,0,15.8-6.1,15.8-13.7
			v-5.1C1819.9,834.1,1812.8,827.9,1804.1,827.9z"/>
	</g>
	<g>
		<path class="st7" d="M1826.2,848.9l2.3,4.2h18.5l12.1-3.7l2.8,2l11.3-1.9v-4.1h28.8l45.9,2l23.1-8.6l6.7-10.6l6.1-2.2l3-19.6
			l4.9-19.9l6.9,14.8l9.4,29.2l2.3,0.5l4.5,8.6l5.1,3.4h10.3l4.6,1.1l1.5-0.9l0.2-1.3l4.3,0.5l3.8,1.6l0.5-1.4l3.2,1.1v-1.9
			l-8.7-5.8h-10.5l-6.2-2.2l-3.1-5.3l1.6-2.3l-3.1-12.9l-9.6-33.4l-0.9-13v-13.3l-14.5-17.7l-16.1-7.4l1.9-7.2l2.1-1.2l2-6.6
			l-0.6-1.6l-1.5,0.7v-7l-2.2-6.8l-6.2-5.1l-6.5-0.8l-5.2,0.8l-5.8,3.8l-3.6,8.3v6.4l-2-0.5l-0.6,0.9l2.6,8.1l1.3,0.9l1,6.2l-10,0.8
			l-22.4,6.8l-7.9,4.6l-19,4.7l-6.5,7.5l3.1,10.7l-24.3,45.6l-10.3,16.2l0.8,3l-1.7,1.9l-4.2,0.9l-12.6,12.8L1826.2,848.9z
			 M1920.9,768l-7.6-7l12.3-4.5l9,3.7l-2.6,24.9L1920.9,768z M1879.6,826.9l15.2-15.6l7.9-13.1l6.1,19.8l4.5,7.5l-11.7,1.4l-4.4-3.7
			L1879.6,826.9z"/>
		<g>
			<path class="st6" d="M1954.1,721.6L1954.1,721.6c-0.1-0.4-0.3-0.7-0.5-0.9l-1-0.7l-2.4-6.9l1,0.2h0.1c0.1,0,0.2,0,0.2,0
				c0.6,0,1-0.4,1-1l-0.2-6.3c1.1-2.7,2.1-5.4,3.2-8.1c1.8-1.3,3.7-2.6,5.5-3.9l5.1-1l-5.2,0.5c0,0,0,0-0.1,0l0,0
				c-2,1.2-4,2.4-6,3.6c-0.1,0-0.1,0.1-0.2,0.2l0,0c-1.3,2.7-2.6,5.4-3.9,8.2c0,0.1-0.1,0.2-0.1,0.3l0,0l-0.2,5.1l-0.7-0.2
				c-0.4-0.1-0.9,0.1-1.2,0.4l0,0l-0.6,0.9c-0.2,0.3-0.2,0.6-0.1,0.9v0.1l2.4,8.1c0.1,0.3,0.2,0.5,0.4,0.6l0,0l0.8,0.6l0.6,4
				l-8.4,0.5c-0.1,0-0.2,0-0.3,0h-0.1L1932,730l-11.2,3.3c-0.1,0-0.3,0.1-0.4,0.2l0,0l-7.7,4.3c-3.1,0.7-6.2,1.5-9.2,2.2l-9.5,2.3
				c-0.4,0.1-0.8,0.3-1.2,0.7l0,0l-6.6,7.4c-0.5,0.6-0.7,1.4-0.5,2.1l0,0c0.9,3.3,1.9,6.6,2.9,9.8l-5.6,10.6l-3,5.7l-3,5.7
				l-5.9,11.4c-2,3.8-3.9,7.6-5.9,11.4l-5,8.1c-1.7,2.7-3.4,5.5-5,8.2v0.1c-0.2,0.3-0.2,0.7-0.1,1.1l0.7,2.3l-0.9,1.1l-3.8,0.9h-0.1
				c-0.2,0-0.4,0.1-0.5,0.3l-6.1,6.6c-2,2.2-4,4.3-6,6.5l-6,3l-6.1,3.1l6.3-2.5l6.3-2.6l0.1-0.1l0,0c2.2-2,4.4-4.1,6.5-6.2l6.2-5.9
				l3.9-0.8c0.2,0,0.5-0.2,0.6-0.3l0.1-0.1l1.8-1.8c0.3-0.3,0.4-0.8,0.3-1.2v-0.1l-0.6-2.3c1.7-2.5,3.4-5,5.1-7.5l5.3-8v-0.1v-0.1
				c2.1-3.8,4.2-7.5,6.2-11.3l6.2-11.3l3.1-5.7l3.1-5.7l6.1-11.4c0.3-0.5,0.3-1.1,0.2-1.7l0,0c-0.9-3.2-1.8-6.4-2.7-9.5l5.2-6
				l8.8-2.2c3.2-0.8,6.3-1.6,9.5-2.4h0.1c0.2,0,0.3-0.1,0.5-0.2l7.7-4.5l10.9-3.4l11-3.5l9.8-1h0.1h0.1c0.8-0.2,1.3-0.9,1.2-1.8l0,0
				L1954.1,721.6z"/>
			<path class="st6" d="M1935.3,758.5c-0.8-0.2-1.6-0.5-2.4-0.7s-1.6-0.4-2.4-0.6c-1.6-0.4-3.3-0.6-5-0.7c1.3,1.1,2.6,2.1,4,3
				c0.7,0.4,1.4,0.9,2.1,1.3l0.8,0.4c-0.7,3.7-1.2,7.5-1.3,11.2c-0.1,2.1-0.1,4.2,0,6.3c0.1,2.1,0.4,4.3,0.8,6.4
				c0.9-2,1.6-4,2.1-6.1c0.6-2,1-4.1,1.3-6.1c0.7-4.1,1.1-8.3,1.1-12.5V760C1936.5,759.3,1936,758.7,1935.3,758.5z"/>
			<path class="st6" d="M1915,824.5c-0.7-1.3-1.3-2.6-2-3.9s-1.3-2.4-2-3.5l-0.7-2.2c-0.3-0.8-0.6-1.6-0.8-2.4
				c-0.6-1.6-1.2-3.2-1.9-4.9s-1.4-3.2-2.2-4.8c-0.8-1.6-1.6-3.1-2.6-4.6c0,1.8,0.2,3.5,0.4,5.3c0.2,1.7,0.5,3.4,0.9,5.1
				s0.7,3.4,1.2,5.1c0.2,0.8,0.4,1.7,0.7,2.5l0.7,2.5c0.1,0.2,0.1,0.3,0.2,0.5l0,0c0.8,1.2,1.5,2.5,2.3,3.7c0.3,0.4,0.6,0.9,0.9,1.3
				c-0.9,0.2-1.8,0.5-2.8,0.7s-1.9,0.6-2.9,0.9s-1.9,0.7-2.8,1.1c1,0.2,2,0.3,3,0.4s2,0.1,3,0.2s2,0.1,3,0.1s2,0,3-0.1
				c0.3,0,0.5-0.1,0.8-0.2c0.9-0.4,1.3-1.5,0.8-2.4l0,0L1915,824.5z"/>
		</g>
	</g>
	<path class="st8" d="M1853.2,687.2v-37.3l-26.1,4.6v34.1c-2.2-1.5-5-2-7.6-1.2c-4.2,1.1-7,4.5-6.2,7.6s4.9,4.6,9.2,3.5
		c3.9-1,6.5-3.9,6.4-6.7v-31.6l22.7-4v27.7c-2.2-1.5-5-2-7.6-1.1c-4.3,1.1-7.1,4.5-6.2,7.6s4.9,4.6,9.2,3.5
		C1850.7,692.9,1853.3,690,1853.2,687.2z"/>
	<path class="st8" d="M1685,467.2v-31.9l-22.3,4v29.2c-1.9-1.3-4.3-1.7-6.5-1c-3.6,1-6,3.9-5.3,6.5s4.2,4,7.8,3
		c3.3-0.9,5.6-3.3,5.4-5.8v-27l19.4-3.5v23.7c-1.9-1.3-4.3-1.7-6.5-1c-3.6,1-6,3.9-5.3,6.5s4.2,4,7.8,3
		C1682.9,472.1,1685.2,469.6,1685,467.2z"/>
	<path class="st8" d="M1623,617.7c-6.9-2.9-10-7.4-10-12.6l-2.4,0.4v49.2c-2.5-2-6.7-2.8-11-1.7c-6.1,1.6-10.2,6.5-9,11
		s7.1,6.7,13.2,5c5.6-1.5,9.4-5.6,9.2-9.7v-41.2c2.6,3.3,8.1,1.2,10.9,5c2,2.6,2.1,6.2,0.3,8.9
		C1627.8,630.4,1629.9,620.6,1623,617.7z"/>
	<path class="st8" d="M1768.4,542.3c-5.9-2.5-8.6-6.3-8.6-10.8l-2.1,0.4V574c-2.2-1.8-5.7-2.4-9.4-1.4c-5.2,1.4-8.7,5.6-7.7,9.4
		s6.1,5.7,11.3,4.3c4.8-1.3,8-4.8,7.8-8.3v-25.4c2.2,2.8,6.9,1.1,9.3,4.3c1.7,2.2,1.8,5.3,0.2,7.6c2.7-1.2,4.4-7.4,1.2-10.8
		C1772.8,551,1773.5,544.4,1768.4,542.3z M1768.4,552.1c-5.3-2.2-7.9-5.5-8.4-9.3c2.2,2.7,6.8,1,9.2,4.2c1.4,1.8,1.7,4.1,0.9,6.2
		C1769.6,552.7,1769,552.4,1768.4,552.1z"/>
</g>
<path class="st7" d="M2800,855.4v28.5H0v-28.5C918.6,836.8,1851,835.4,2800,855.4z"/>
<polygon class="st7" points="533.1,813.9 482,760.5 482,760.5 281.4,539.7 80.7,760.5 80.7,760.5 33.8,813.6 85.5,776.5 
	107.3,849.4 455.4,849.4 477.2,776.5 "/>
<g>
	<polygon class="st7" points="2800,853.4 2709.1,753.8 2739.2,763.7 2724.1,736.1 2784.1,748 2695.1,650.4 2720.1,658.7 2708.3,637 
		2755.4,646.3 2675.3,558.5 2703.4,567.9 2694.5,551.4 2730.2,558.5 2663.7,485.6 2687.2,493.4 2681,482 2705.7,486.9 2656.4,432.9 
		2685.6,442.1 2650.9,382 2616.2,442.1 2645.4,432.9 2596.1,486.9 2620.8,482 2614.6,493.4 2638.2,485.6 2571.7,558.5 2607.4,551.4 
		2598.4,567.9 2626.6,558.5 2546.5,646.3 2593.6,637 2581.7,658.7 2606.7,650.4 2517.7,748 2577.8,736.1 2562.7,763.7 2592.8,753.8 
		2501.9,853.4 	"/>
	<g>
		<polygon class="st6" points="2650.9,382 2616.2,442.1 2624.4,439.5 		"/>
		<polygon class="st6" points="2615.7,650.4 2601.3,656.4 2517.7,748 2549.2,741.7 		"/>
		<polygon class="st6" points="2575.4,740.3 2562.7,763.7 2583.5,756.8 2592.6,736.1 		"/>
		<polygon class="st6" points="2585.6,761.7 2501.9,853.4 2532,853.4 2604.5,753.8 		"/>
		<polygon class="st6" points="2591.8,640.3 2581.7,658.7 2598.1,653.3 2605.2,637 		"/>
		<polygon class="st6" points="2640.8,485.6 2636.6,487.3 2571.7,558.5 2590.4,554.8 		"/>
		<polygon class="st6" points="2646.5,432.9 2644.8,433.6 2596.1,486.9 2609.1,484.4 		"/>
		<polygon class="st6" points="2619.9,483.8 2614.6,493.4 2623.2,490.6 2626.9,482 		"/>
		<polygon class="st6" points="2631.5,558.5 2623.6,561.9 2546.5,646.3 2571.2,641.4 		"/>
		<polygon class="st6" points="2606,554 2598.4,567.9 2610.8,563.8 2616.2,551.4 		"/>
	</g>
	<polygon class="st7" points="2800,853.4 2800,319.5 2760.7,387.5 2793.8,377.2 2738,438.4 2765.9,432.8 2758.9,445.7 2785.6,436.9 
		2710.2,519.4 2750.7,511.4 2740.5,530.1 2772.4,519.5 2681.7,618.9 2735,608.3 2721.6,632.9 2749.9,623.5 2649.1,734 2717.1,720.5 
		2700,751.9 2734.1,740.6 2631.2,853.4 	"/>
	<g>
		<polygon class="st6" points="2800,319.5 2760.7,387.5 2770,384.6 		"/>
		<polygon class="st6" points="2760.1,623.5 2743.8,630.3 2649.1,734 2684.8,726.9 		"/>
		<polygon class="st6" points="2714.5,725.3 2700,751.9 2723.7,744 2733.9,720.5 		"/>
		<polygon class="st6" points="2725.9,749.5 2631.2,853.4 2665.3,853.4 2747.4,740.6 		"/>
		<polygon class="st6" points="2733,612.1 2721.6,632.9 2740.1,626.7 2748.2,608.3 		"/>
		<polygon class="st6" points="2788.5,436.9 2783.8,438.8 2710.2,519.4 2731.5,515.2 		"/>
		<polygon class="st6" points="2795,377.2 2793.1,377.9 2738,438.4 2752.6,435.5 		"/>
		<polygon class="st6" points="2764.8,434.8 2758.9,445.7 2768.6,442.5 2772.8,432.8 		"/>
		<polygon class="st6" points="2778,519.5 2769,523.2 2681.7,618.9 2709.7,613.3 		"/>
		<polygon class="st6" points="2749.1,514.3 2740.5,530.1 2754.6,525.4 2760.7,511.4 		"/>
	</g>
</g>
<g>
	<polygon class="st7" points="0,853.4 83.6,761.7 56,770.9 69.8,745.4 14.6,756.4 96.5,666.6 73.5,674.2 84.4,654.2 41.1,662.8 
		114.8,582 88.9,590.6 97.1,575.5 64.2,582 125.4,514.9 103.8,522.1 109.5,511.6 86.8,516.1 132.1,466.4 105.3,474.8 137.2,419.5 
		169.1,474.8 142.3,466.4 187.6,516.1 164.9,511.6 170.6,522.1 148.9,514.9 210.1,582 177.3,575.5 185.5,590.6 159.6,582 
		233.3,662.8 190,654.2 200.9,674.2 177.9,666.6 259.8,756.4 204.6,745.4 218.4,770.9 190.8,761.7 274.4,853.4 	"/>
	<g>
		<polygon class="st6" points="137.2,419.5 169.1,474.8 161.6,472.4 		"/>
		<polygon class="st6" points="169.7,666.6 182.9,672.1 259.8,756.4 230.8,750.6 		"/>
		<polygon class="st6" points="206.7,749.3 218.4,770.9 199.2,764.5 190.9,745.4 		"/>
		<polygon class="st6" points="197.4,769 274.4,853.4 246.7,853.4 179.9,761.7 		"/>
		<polygon class="st6" points="191.7,657.3 200.9,674.2 185.8,669.2 179.3,654.2 		"/>
		<polygon class="st6" points="146.6,514.9 150.4,516.5 210.1,582 192.9,578.6 		"/>
		<polygon class="st6" points="141.2,466.4 142.9,467 187.6,516.1 175.7,513.7 		"/>
		<polygon class="st6" points="165.8,513.2 170.6,522.1 162.7,519.5 159.3,511.6 		"/>
		<polygon class="st6" points="155.1,582 162.4,585.1 233.3,662.8 210.6,658.3 		"/>
		<polygon class="st6" points="178.5,577.8 185.5,590.6 174.1,586.8 169.2,575.5 		"/>
	</g>
	<polygon class="st7" points="0,853.4 0,362 36.2,424.6 5.8,415.1 57.1,471.4 31.4,466.3 37.8,478.2 13.3,470 82.6,546 45.4,538.6 
		54.7,555.8 25.4,546 108.8,637.6 59.8,627.8 72.1,650.4 46.1,641.8 138.8,743.5 76.3,731.1 92,759.9 60.7,749.5 155.4,853.4 	"/>
	<g>
		<polygon class="st6" points="0,362 36.2,424.6 27.6,421.9 		"/>
		<polygon class="st6" points="36.8,641.8 51.8,648 138.8,743.5 106,737 		"/>
		<polygon class="st6" points="78.7,735.5 92,759.9 70.3,752.7 60.8,731.1 		"/>
		<polygon class="st6" points="68.2,757.8 155.4,853.4 124,853.4 48.4,749.5 		"/>
		<polygon class="st6" points="61.7,631.3 72.1,650.4 55.1,644.8 47.7,627.8 		"/>
		<polygon class="st6" points="10.6,470 14.9,471.8 82.6,546 63.1,542.1 		"/>
		<polygon class="st6" points="4.6,415.1 6.4,415.8 57.1,471.4 43.6,468.7 		"/>
		<polygon class="st6" points="32.4,468.1 37.8,478.2 28.9,475.2 25,466.3 		"/>
		<polygon class="st6" points="20.3,546 28.5,549.5 108.8,637.6 83.1,632.5 		"/>
		<polygon class="st6" points="46.8,541.3 54.7,555.8 41.8,551.5 36.2,538.6 		"/>
	</g>
</g>
<g>
	<g>
		
			<linearGradient id="SVGID_5_" gradientUnits="userSpaceOnUse" x1="1717.8867" y1="2047.5292" x2="1717.8867" y2="2220.3293" gradientTransform="matrix(1 0 0 -1 0 2853.5259)">
			<stop  offset="0" style="stop-color:#FFFF69"/>
			<stop  offset="1" style="stop-color:#FF4545"/>
		</linearGradient>
		<path class="st9" d="M1721.3,633.2c-3.6,52-55.2,59.9-55.2,105.5c0,50,55.2,67.3,55.2,67.3s73.5-27.2,39.3-90.3
			c0,0-2.5,16.2-19.6,25.8C1741.1,741.6,1778.6,692.4,1721.3,633.2z"/>
		
			<linearGradient id="SVGID_6_" gradientUnits="userSpaceOnUse" x1="1719.2827" y1="2047.5292" x2="1719.2827" y2="2145.3293" gradientTransform="matrix(1 0 0 -1 0 2853.5259)">
			<stop  offset="0" style="stop-color:#FFFFFF"/>
			<stop  offset="1" style="stop-color:#FFF94D"/>
		</linearGradient>
		<path class="st10" d="M1721.8,708.2c0,0-57.3,31.7-16.3,97.8h33.2c0,0,19.1-23.7,2.1-48.9c0,0-0.9,19.9-13.4,25
			C1735.5,750.3,1713.4,747.9,1721.8,708.2z"/>
	</g>
</g>
</svg>
